<svg width="1920" height="1080" viewBox="0 0 1920 1080" fill="none" xmlns="http://www.w3.org/2000/svg">
<g clip-path="url(#clip0_102_2)">
<rect width="1920" height="1080" fill="white"/>
<mask id="mask0_102_2" style="mask-type:alpha" maskUnits="userSpaceOnUse" x="0" y="0" width="1920" height="1080">
<g style="mix-blend-mode:hue">
<rect width="1920" height="1080" fill="#CFB8EC"/>
</g>
</mask>
<g mask="url(#mask0_102_2)">
<g filter="url(#filter0_f_102_2)">
<path fill-rule="evenodd" clip-rule="evenodd" d="M254.921 -490.991C407.144 -489.764 506.435 -343.497 609.484 -231.321C706.158 -126.085 836.152 -18.3526 819.556 123.654C803.478 261.232 644.956 319.923 535.205 404.264C447.413 471.73 364.631 542.983 254.921 557.565C127.056 574.559 -33.9475 593.607 -111.175 490.175C-187.63 387.777 -70.0731 251.495 -69.0578 123.654C-68.06 -1.97959 -163.968 -125.968 -105.399 -237.084C-34.1388 -372.277 102.239 -492.221 254.921 -490.991Z" fill="#FFFDD7"/>
<path fill-rule="evenodd" clip-rule="evenodd" d="M517.749 624.184C652.478 610.473 809.884 519.313 908.379 612.292C1006.86 705.263 937.487 868.857 919.105 1003.07C904.312 1111.07 897.127 1228.89 814.235 1299.66C735.15 1367.18 621.567 1340.1 517.749 1345.73C403.325 1351.93 281.303 1399.18 187.279 1333.66C82.7334 1260.8 23.7164 1130.51 26.0677 1003.07C28.3859 877.415 99.734 761.148 199.257 684.457C288.24 615.888 406.003 635.555 517.749 624.184Z" fill="#B1DAFF"/>
<path fill-rule="evenodd" clip-rule="evenodd" d="M1383.29 -283.662C1517.39 -277.546 1663.81 -303.588 1764.51 -214.85C1869.16 -122.634 1889.23 26.8768 1893.87 166.257C1898.71 311.776 1892.06 468.99 1790.75 573.589C1688.37 679.285 1524.62 734.424 1383.29 693.387C1257.82 656.957 1246.79 487.182 1159.24 390.229C1080.96 303.534 941.056 278.068 907.307 166.257C865.091 26.3945 859.421 -150.916 965.606 -251.287C1071.09 -350.994 1238.27 -290.276 1383.29 -283.662Z" fill="#CACACA"/>
<path fill-rule="evenodd" clip-rule="evenodd" d="M1431.91 572.273C1513.43 560.929 1592.14 627.247 1632.97 698.658C1667.61 759.247 1614.92 829.891 1619.04 899.55C1623.74 978.935 1698.26 1056.95 1658.22 1125.68C1615.43 1199.14 1516.93 1223.66 1431.91 1220.77C1349.35 1217.97 1267.67 1178.53 1220.47 1110.81C1178.52 1050.63 1196.12 971.919 1207.98 899.55C1217.4 842.11 1247.12 795.821 1280 747.77C1325.41 681.395 1352.2 583.362 1431.91 572.273Z" fill="#FFFB91"/>
</g>
</g>
</g>
<defs>
<filter id="filter0_f_102_2" x="-537" y="-891" width="2832" height="2659" filterUnits="userSpaceOnUse" color-interpolation-filters="sRGB">
<feFlood flood-opacity="0" result="BackgroundImageFix"/>
<feBlend mode="normal" in="SourceGraphic" in2="BackgroundImageFix" result="shape"/>
<feGaussianBlur stdDeviation="200" result="effect1_foregroundBlur_102_2"/>
</filter>
<clipPath id="clip0_102_2">
<rect width="1920" height="1080" fill="white"/>
</clipPath>
</defs>
</svg>
