<svg xmlns="http://www.w3.org/2000/svg" viewBox="0 0 199.12 59.43"><defs><style>.cls-1,.cls-2{fill:#fff;}.cls-1{opacity:0.7;}</style></defs><title>mern-estate-logo</title><g id="Layer_2" data-name="Layer 2"><g id="Logo"><polygon class="cls-1" points="0 15.16 0 45.48 25.08 59.43 25.08 51.52 25.08 17.56 16.43 25.59 16.43 46.74 14.35 45.61 14.35 27.26 9 32.01 9 42.7 6.85 41.53 6.85 19.11 26.26 7.91 26.26 0 0 15.16"/><polygon class="cls-2" points="26.26 0 26.26 7.91 45.67 19.11 45.67 41.53 43.52 42.7 43.52 32.01 38.17 27.26 38.17 45.61 36.09 46.74 36.09 25.59 27.44 17.56 27.44 51.52 27.44 59.43 52.52 45.48 52.52 15.16 26.26 0"/><path class="cls-2" d="M65.07,21.94a35.34,35.34,0,0,1,5-.32c2.38,0,4.09.32,5.27,1.2a4.07,4.07,0,0,1,1.53,3.4A4.18,4.18,0,0,1,74.25,30v.07a4,4,0,0,1,2,2.8c.46,1.6,1,3.86,1.27,4.47H73.25a19.71,19.71,0,0,1-1.08-3.61c-.42-1.85-1-2.25-2.29-2.25h-.67v5.86H65.07Zm4.14,6.53h1.08c1.58,0,2.48-.77,2.48-1.92s-.76-1.83-2.15-1.83a5.62,5.62,0,0,0-1.41.09Z"/><path class="cls-2" d="M89.13,31h-5.6V33.9H89.8v3.43H79.34V21.73H89.47v3.43H83.53v2.5h5.6Z"/><path class="cls-2" d="M96.21,33.72l-.88,3.61H91l4.51-15.6h5.58l4.65,15.6h-4.51l-1-3.61Zm3.44-3.08-.71-2.8c-.23-.88-.54-2.17-.79-3.08H98.1c-.23.91-.46,2.2-.67,3.08l-.67,2.8Z"/><path class="cls-2" d="M107.73,21.73h4.19v12.1h6v3.5H107.73Z"/><path class="cls-2" d="M134.31,31h-5.6V33.9H135v3.43H124.53V21.73h10.13v3.43h-5.95v2.5h5.6Z"/><path class="cls-2" d="M137.58,33.16a9.31,9.31,0,0,0,4,1c1.44,0,2.13-.48,2.13-1.27s-.69-1.2-2.45-1.8c-2.64-.93-4.39-2.39-4.39-4.7,0-2.75,2.33-4.88,6.26-4.88a10,10,0,0,1,4.21.81l-.87,3.33a8.18,8.18,0,0,0-3.38-.74c-1.27,0-2,.46-2,1.16s.83,1.11,2.8,1.83c2.8,1,4,2.54,4,4.71,0,2.69-2.08,5-6.64,5a11.1,11.1,0,0,1-4.58-1Z"/><path class="cls-2" d="M153.31,25.25h-4V21.73h12.21v3.52h-4V37.33h-4.19Z"/><path class="cls-2" d="M165.94,33.72l-.88,3.61h-4.32l4.51-15.6h5.57l4.65,15.6H171l-1-3.61Zm3.45-3.08-.72-2.8c-.23-.88-.53-2.17-.79-3.08h0c-.23.91-.46,2.2-.67,3.08l-.67,2.8Z"/><path class="cls-2" d="M178.51,25.25h-4V21.73h12.21v3.52h-4.05V37.33h-4.18Z"/><path class="cls-2" d="M198.45,31h-5.6V33.9h6.27v3.43H188.66V21.73h10.13v3.43h-5.94v2.5h5.6Z"/></g></g></svg>